# xmcd
#
# Track frame offsets: 
#        150
#        17892
#        32759
#        48502
#        65092
#        84731
#        104355
#        121333
#        141489
#        164578
#        179858
#
# Disc length: 2681 seconds
#
# Revision: 0
# Processed by: cddbd v1.5.1PL2 Copyright (c) Steve Scherf et al.
# Submitted via: ExactAudioCopy v0.95b3
#
DISCID=a80a770b
DTITLE=Mike Rayson - Sometimes Human
DYEAR=2005
DGENRE=Contemporary Christian
TTITLE0=Circle Spin Round
TTITLE1=The Joinery Shop
TTITLE2=Because You Love
TTITLE3=Fall At Your Feet
TTITLE4=Ballantyne
TTITLE5=What Makes A Man
TTITLE6=Confession Of A Pilgrim Heart
TTITLE7=That's What Daddies Do
TTITLE8=Face Of A Rose
TTITLE9=Hey Joe
TTITLE10=Untitled
EXTD=
EXTT0=
EXTT1=
EXTT2=
EXTT3=
EXTT4=
EXTT5=
EXTT6=
EXTT7=
EXTT8=
EXTT9=
EXTT10=
PLAYORDER=
